DataType=double
version=3
OpenSimVersion=4.5-2023-11-26-efcdfd3eb
endheader
time	EMG01_right_gast_med	EMG02_right_glut_max	EMG03_left_gast_med	EMG04_left_glut_max	EMG05_right_glut_med	EMG06_right_bic_fem	EMG07_right_rect_fem	EMG08_right_vast_lat	EMG09_right_vast_med	EMG10_right_tens_fasc_lat	EMG11_left_glut_med	EMG12_left_bic_fem	EMG13_left_rect_fem	EMG14_left_vast_lat	EMG15_left_vast_med	EMG16_left_tens_fasc_lat
2.52	9.174818518418823	20.3284550880069	108.4044557149832	6.991423721941118	65.04710109986314	40.40208240654691	6.675706107963141	7.314156667169141	33.605087729956	16.49742866770662	4.227381265902622	5.41493097830723	8.440576889200502	8.148514987090227	5.862047039444245	13.35584836720117
2.53	10.34603798732372	21.4399291290111	106.3537536744424	7.36380267922153	69.70462694519307	41.1428854356371	6.991860490740465	7.736632246794483	37.33253511187036	18.7946596794149	4.07451163523107	5.514133074056134	8.4394158893026	8.282864720893521	6.292364290048937	11.73286339302869
2.54	11.62728989567445	22.62836380703815	103.8169808526068	7.903343860399176	74.21072797915149	41.77079125494092	7.301797983778585	8.155129073272011	41.12567912432449	21.37491246794856	3.934150104690131	5.595139400949591	8.406855749785979	8.402427051695659	6.778191125589575	10.3246167771893
2.55	13.019824448277	23.87869944624276	100.8201972766631	8.613187188769281	78.51034658456875	42.27857434302308	7.602769184284516	8.565111845650746	44.95126166822374	24.22756498489058	3.8045204296519	5.656690243219368	8.342709637543157	8.506639175043528	7.31201082124335	9.134577011259783
2.56	14.5239695430626	25.17497325828399	97.3953201793521	9.494532454005077	82.55107520792173	42.66011122182298	7.892097268839857	8.962058567835767	48.77488058762213	27.33832064460861	3.683986956873834	5.697971084360751	8.247193922626423	8.595175827790642	7.88601621956711	8.163700060395987
2.57	16.13913043787919	26.50052204966498	93.57947116578401	10.54653530273012	86.2838694669033	42.91052331792289	8.167202263653236	9.341530075615401	52.56140815388251	30.68914666371008	3.57106744752951	5.718630921321189	8.120922000729024	8.667906175162665	8.492183231359395	7.410507827355462
2.58	17.86380932026644	27.83819860991863	89.41423032940315	11.76623130492927	89.66373522765353	43.02629988338835	8.425623631940509	9.699240220834241	56.27543165635346	34.25826801261925	3.464444299356078	5.71879623581372	7.964892775728312	8.724850336950206	9.122344805938996	6.871192418925704
2.59	19.69564430754604	29.17059933417355	84.94481948279405	13.14849055956203	92.65037527279419	43.00539419642316	8.665041359839638	10.03112535842256	59.88170864366978	38.02022139492153	3.362974255263813	5.699080247559094	7.780473809328375	8.766137736006348	9.768264842329296	6.539743810399232
2.6	21.63146687843746	30.48030025750116	80.21923785454901	14.68600492618944	95.20878143911615	42.8472871434533	8.883295832356392	10.3334116651125	63.34562884604376	41.94597287753378	3.265696656070448	5.660586935719049	7.569379532205889	8.791969278852273	10.42171155259528	6.40809852154069
2.61	23.66737619917151	31.75009839654842	75.28737401724186	16.36930953433739	97.3097581776163	42.55301428978109	9.078406828062931	10.60267872411159	66.63367455458496	46.00310175334015	3.17184028051638	5.604909187839196	7.333645229729814	8.802585123871449	11.07452982086987	6.466306900878513
2.62	25.79882824334612	32.96325503821546	70.20011741237232	18.18683970968306	98.93036276300737	42.12515540520438	9.248591919150634	10.8359177395621	69.71387128106848	50.15605202460144	3.080828817618852	5.534120297442104	7.075597638015839	8.798239477304044	11.71871211719538	6.702716576621821
2.63	28.02073694456278	34.10373730879359	65.00849150636638	20.1250238891258	100.0542463013444	41.56778820268705	9.392284436945584	11.03058273296297	72.55622110731883	54.36645171772501	2.992285012267353	5.450757867412958	6.797822901274341	8.779183478785345	12.34646752564018	7.104169614873604
2.64	30.32758382608815	35.15645392406471	59.76282841899365	22.16841253348491	100.6718796483521	40.88640994792761	9.508150966117793	11.18463321504908	75.1331120646626	58.59349903817927	2.906033491124163	5.357799043751025	6.503132442052728	8.745656815264599	12.95028845832942	7.65621097183557
2.65	32.71353174901343	36.1074803658911	54.51200212818576	24.29984251320554	100.7806508024365	40.08783155300102	9.595108107339382	11.29656716796194	77.4196974775785	62.79441291533233	2.822102211471178	5.258626029602115	6.194527124005717	8.69788828463186	13.52301473221304	8.343305948229494
2.66	35.17253791068675	36.94426790081709	49.30273436346406	26.50063593505358	100.3848257130863	39.18004922679732	9.65233807368414	11.36544363656614	79.39423902954715	66.9249437566944	2.740722397756947	5.156981150910656	5.875160051301835	8.636105163581261	14.05789495230838	9.149064528075431
2.67	37.69846131942715	37.65583018890255	44.17898417570321	28.75083190106873	99.49537170775788	38.17209907439179	9.679302615096507	11.39089470280293	81.03840657151012	70.93993868398194	2.662326760589326	5.056911401998035	5.548298445909355	8.560550914014392	14.54864551375894	10.05647067664321
2.68	40.28516079265838	38.23290115629407	39.18142900056291	31.02944920273941	98.12965016153154	37.07390025352858	9.67575474809415	11.3731270335138	82.33752699629368	74.79395464990124	2.587545753204221	4.962703223474183	5.217285158804629	8.471510440485416	14.98950782569809	11.04811483726673
2.69	42.92658091766098	38.66805851920361	34.34704196437194	33.31477732438198	96.3109915087972	35.89609219183097	9.641747712919555	11.312913499016	83.28077459704129	78.44191260625463	2.5172016320023	4.87880895501278	4.885500401398565	8.369341749977822	15.37530441818504	12.10642793621252
2.7	45.61682491911628	38.95580880405511	29.70876735236122	35.58469226890977	94.0681708770057	34.64987073823482	9.577640528188212	11.21157553515149	83.86129679129245	81.83978587338449	2.45230015682775	4.809766779200001	4.556324244701384	8.25451247092389	15.70149440199999	13.21391513180611
2.71	48.35021439094551	39.09263175362427	25.29529362386018	37.81699266328096	91.43480614199035	33.34682708206109	9.484099610507965	11.07095700259699	84.07627178713072	84.94531555426498	2.394019868732388	4.760116074552839	4.233100396651251	8.127639299252154	15.9642284019438	14.35338734086801
2.72	51.12133606374995	39.07698429594984	21.13092111712432	39.98975041680001	88.44870158160205	31.99879220149456	9.362096194949316	10.89339032136396	83.92689794509768	87.71874474599096	2.343698971118447	4.734310053071822	3.919101743380485	7.989528109006971	16.1604026881829	15.50818829945008
2.73	53.92507540287313	38.90926629210431	17.23551966082727	42.08166893148576	85.15115951925813	30.61768873273098	9.212899568474	10.68165561062763	83.41831767738309	90.12356108634479	2.302819880911204	4.736627453575203	3.617498085895207	7.841212247396117	16.287711870643	16.66241462444949
2.74	56.75663619883986	38.59175179453854	13.62456976319135	44.0724406003072	81.58628007337417	29.21539137076669	9.038066264218051	10.43893344977593	82.55948135724034	92.12723394868675	2.272991509482384	4.771084960158268	3.331326402128788	7.683986457646997	16.34469921908293	17.80112605521234
2.75	59.61154448862101	38.12849051061524	10.30927990603509	45.94309429235818	77.80026635116553	27.80359605846284	8.839425365533963	10.16875179786555	81.36295812591804	93.70192881794345	2.255929296408222	4.841351976811505	3.06346384395324	7.51943394618253	16.33080333757816	18.91054274219555
2.76	62.48563410868185	37.52518449532113	7.296771643890698	47.67632297179541	73.84074984058878	26.39369741395416	8.619060018695771	9.874927690639415	79.84470003858405	94.82517753812571	2.253432977361851	4.950669418742743	2.816603576094197	7.349444353855472	16.24639942841682	19.97822608626031
2.77	65.37501015060799	36.78904478089551	4.590323574443897	49.25678162145543	69.7561484632985	24.99667342357727	8.379285201189514	9.561504599487506	78.02376434661527	95.48047982833192	2.267362060358259	5.101774211024303	2.593233487715064	7.176220825238668	16.09283273813467	20.99323923447728
2.78	68.27598603791594	35.92863205602284	2.189664766673042	50.67134595624157	65.59506749278556	23.6229766327663	8.122621765319488	9.232686676864779	75.92199760684998	95.65780956889247	2.299609056768145	5.296831142793115	2.395617739167423	7.002274985017155	15.87244120197996	21.94628299299674
2.79	71.1849902482205	34.95368508666142	0.09130794786678413	51.90932262529294	61.40575106694912	22.28243186956788	7.851766828092682	8.892771363825871	73.56368584130757	95.35399966703153	2.352070665311338	5.537373588524566	2.225781029461404	6.830409389035273	15.58856405423399	22.82980279662722
2.8	74.09843975975853	33.8749403599573	-1.711087311131159	52.96260196582877	57.23558926511177	20.98414158958507	7.569560732131245	8.546081907663131	70.97517657280017	94.57298230304406	2.42661727393619	5.824254403357227	2.085495393330215	6.663687830111572	15.2455333583592	23.63806268538244
2.81	77.0125786543266	32.70394620479197	-3.226331035602763	53.82574587915398	53.13068278249141	19.73640070344125	7.278950986514441	8.19690128648663	68.18447996288445	93.3258670850708	2.525061257670303	6.157608074567126	1.976269290443522	6.505394581706287	14.84864598633897	24.3671830893462
2.82	79.92328190302318	31.45287439477642	-4.465308259342708	54.49600673768273	49.13546436534042	18.54662285654534	6.982953714511132	7.849408967043478	65.22085702430967	91.63084737143647	2.649124602534942	6.536825010638102	1.899338755808792	6.358984127314023	14.40411449912102	25.0151405255529
2.83	82.8258266836653	30.13433212958963	-5.440582398033363	54.97327784232049	45.29237373561049	17.42127961480612	6.684613178308891	7.50762183982455	62.11440326234443	89.5129333819193	2.800406409746576	6.960538692433558	1.855660426407315	6.228023165072555	13.91899660964141	25.58172878351735
2.84	85.71463684482727	28.76117723434534	-6.166005111854584	55.2599804031401	41.64158105792822	16.36585322548767	6.386959985467722	7.175340506139763	58.89563615916434	87.00351885078751	2.980350852674216	7.426626279789454	1.845906302683026	6.116126777664602	13.40110424928135	26.06848244884662
2.85	88.58300992588417	27.3463391833527	-6.656340556632043	55.36089516184334	38.22075303999962	15.38480294835338	6.092968650432338	6.856101801738773	55.59509440092212	84.13979568428873	3.190216171276379	7.93222311740149	1.870460114956051	6.026890649234428	12.85889441230254	26.47856444899363
2.86	91.42283987733461	25.90264818451553	-6.926911117045949	55.28294838808067	35.06485518313124	14.48154460534528	5.80551526389567	6.553138085837401	52.2429557478988	80.96403755999657	3.431045286442468	8.473751385258607	1.929415154297436	5.96382109136454	12.30134475696964	26.81661981442102
2.87	94.22435162534371	24.44267430014922	-6.993270805957837	55.0349625202346	32.2059834461602	13.6584429880399	5.527336080560663	6.269343498387248	48.86867936429166	77.52277737963283	3.703638589562358	9.046962908952437	2.022573427052615	5.930264442466492	11.73781739187251	27.08859840835136
2.88	96.97586508354605	22.97857845701037	-6.870911536421289	54.6273817301137	29.67321895784884	12.91681692787875	5.260987878354319	6.007247170934695	45.50067740612074	73.86590495639027	4.008529402833337	9.646995926285753	2.149446018040575	5.929337205856889	11.17791440278551	27.30155027820303
2.89	99.66360583411884	21.52197700025517	-6.57500638716645	54.07198245512603	27.49250051117342	12.25695695855507	5.008810973450809	5.76899328572991	42.16601952334756	70.04571147426536	4.345962515210807	10.26844539807437	2.309254588280795	5.963858157523302	10.63132853096813	27.46339852549138
2.9	102.2715780006425	20.08382108640461	-6.120192777246547	53.38157849720914	25.68651095840245	11.67815547295639	4.772895754321768	5.556327862205674	38.89017258262476	66.11590676740155	4.715876094432919	10.90544619521364	2.500933973209535	6.036283598186204	10.10769210867335	27.58269596612003
2.91	104.7815125099373	18.67429183132018	-5.520397215023172	52.56972957017921	24.27457473876073	11.17874913559438	4.555053491924917	5.37059214150371	35.69677662722049	62.13063408598934	5.117887180612001	11.55176813946347	2.723135883695717	6.148646924168128	9.616427023754685	27.66837301438662
2.92	107.1729012850033	17.30271184506151	-4.788702092117986	51.65046110020766	23.27256449606594	10.75617313136384	4.356792031958869	5.212722410925543	32.60745718130153	58.14350466136238	5.551280892263944	12.20092143270366	2.974233752727572	6.302503721754528	9.166598198321074	27.72948478226175
